<svg width="2140" height="1697" viewBox="0 0 2140 1697" fill="none" xmlns="http://www.w3.org/2000/svg">
<path d="M1993.54 721.423C1968.51 619.861 1848.89 421.871 1570.69 442.402C1222.93 468.067 1052.44 729.32 722.277 642.455C458.146 572.963 193.204 420.028 93.7489 352.247" stroke="#ffffff26" stroke-width="2"/>
<path d="M1935.36 721.423C1852.14 195.627 1221.58 656.825 959.751 692.468C660.033 733.268 216.207 521.37 56.5378 358.17" stroke="#ffffff26" stroke-width="2"/>
<path d="M2003.69 689.177C1965.13 574.893 1823.72 350.009 1566.63 364.75C1245.26 383.176 1086.66 502.797 984.108 599.022C926.6 652.984 737.162 777.359 114.046 202.207" stroke="#ffffff26" stroke-width="2"/>
<path d="M2003.69 689.177C1965.13 574.893 1823.72 350.009 1566.63 364.75C1245.26 383.176 1086.66 502.797 984.108 599.022C926.6 652.984 737.162 777.359 114.046 202.207" stroke="#ffffff26" stroke-width="2"/>
<path d="M2006.7 622.745C1968.14 508.46 1826.74 283.577 1569.64 298.317C1248.27 316.743 1089.67 436.364 987.119 532.59C929.611 586.551 740.173 710.926 117.057 135.775" stroke="#ffffff26" stroke-width="2"/>
<path d="M2006.7 622.745C1968.14 508.46 1826.74 283.577 1569.64 298.317C1248.27 316.743 1089.67 436.364 987.119 532.59C929.611 586.551 740.173 710.926 117.057 135.775" stroke="#ffffff26" stroke-width="2"/>
<path d="M2006.7 622.745C1968.14 508.46 1826.74 283.577 1569.64 298.317C1248.27 316.743 1089.67 436.364 987.119 532.59C929.611 586.551 740.173 710.926 117.057 135.775" stroke="#ffffff26" stroke-width="2"/>
<path d="M2139.11 234.078C2096.73 179.378 1941.33 71.7424 1658.78 78.7978C1305.59 87.617 1131.29 144.871 1018.59 190.927C955.384 216.755 747.191 276.284 62.3848 1" stroke="#ffffff26" stroke-width="2"/>
<path d="M2139.11 234.078C2096.73 179.378 1941.33 71.7424 1658.78 78.7978C1305.59 87.617 1131.29 144.871 1018.59 190.927C955.384 216.755 747.191 276.284 62.3848 1" stroke="#ffffff26" stroke-width="2"/>
<path d="M1841.31 709.578C1815.15 585.861 1671.9 395.811 1308.18 625.345C944.461 854.879 317.692 579.719 49.7723 413.447" stroke="#ffffff26" stroke-width="2"/>
<path d="M1787.84 741.823C1728.76 606.481 1537.68 407.92 1246.01 696.417C954.332 984.913 329.692 659.565 53.8318 460.828" stroke="#ffffff26" stroke-width="2"/>
<path d="M1900.72 209.253C1837.75 109.275 1634.09 -37.4034 1323.22 175.711C1012.34 388.825 346.591 148.488 52.5732 1.68042" stroke="#ffffff26" stroke-width="2"/>
<path d="M2032.7 300.042C1965.12 164.699 1746.52 -33.8615 1412.84 254.635C1079.17 543.132 364.584 217.784 49.0002 19.0471" stroke="#ffffff26" stroke-width="2"/>
<path d="M1996.92 593.1C1927.24 452.054 1697.75 210.499 1337.27 372.647C976.801 534.795 534.418 427.047 358.285 352.905" stroke="#ffffff26" stroke-width="2"/>
<path d="M1996.92 593.1C1927.24 452.054 1697.75 210.499 1337.27 372.647C976.801 534.795 534.418 427.047 358.285 352.905" stroke="#ffffff26" stroke-width="2"/>
<path d="M1996.92 593.1C1927.24 452.054 1697.75 210.499 1337.27 372.647C976.801 534.795 534.418 427.047 358.285 352.905" stroke="#ffffff26" stroke-width="2"/>
</svg>
