<svg width="1440" height="543" viewBox="0 0 1440 543" fill="none" xmlns="http://www.w3.org/2000/svg">
<path d="M1496.85 26.2691C1480.86 114.697 1393.51 289.575 1171.96 281.659C895.027 271.763 749.755 52.5537 491.078 139.042C284.137 208.233 79.7381 349.382 3.40663 411.308" stroke="#003d9a1a" stroke-opacity="0.1" stroke-width="2"/>
<path d="M1450.68 28.315C1404.73 484.487 886.743 109.098 677.611 87.5798C438.217 62.9483 94.1209 261.214 -26.3476 407.511" stroke="#003d9a1a" stroke-opacity="0.1" stroke-width="2"/>
<path d="M1506.13 53.7082C1479.9 153.58 1376.28 352.405 1171.71 348.739C915.986 344.156 785.559 246.617 700.508 167.275C652.812 122.782 497.736 22.2294 25.2441 539.931" stroke="#003d9a1a" stroke-opacity="0.1" stroke-width="2"/>
<path d="M1376.5 41.8326C1360.47 149.399 1254.06 318.262 956.665 133.189C659.274 -51.8838 172.423 207.348 -33.828 360.098" stroke="#003d9a1a" stroke-opacity="0.1" stroke-width="2"/>
<path d="M1338.23 15.678C1296.33 134.431 1151.7 312.34 908.316 73.9465C664.937 -164.447 179.753 138.06 -32.4165 319.112" stroke="#003d9a1a" stroke-opacity="0.1" stroke-width="2"/>
<path d="M1504.44 136.767C1454.52 260.801 1281.64 477.096 989.403 349.996C697.163 222.897 350.234 331.333 213.299 401.439" stroke="#003d9a1a" stroke-opacity="0.1" stroke-width="2"/>
</svg>
